<?xml version="1.0" encoding="UTF-8"?><svg id="Layer_1" xmlns="http://www.w3.org/2000/svg" viewBox="0 0 360 612"><defs><style>.cls-1,.cls-2{fill:#231f20;}.cls-2{stroke:#231f20;stroke-miterlimit:10;stroke-width:3px;}</style></defs><path class="cls-1" d="M334.69,318.65c-5.63-10.27-15.92-18.37-20.11-29.74-4.87-11.39-14.45-18.95-19.31-30.16-4.84-9.93-11.36-17.98-17.02-27.51-6.21-10.31-14.24-23.88-23.96-31.93l-.39-.42c-6.46-6.34-10.05-19.06-18.3-22.19-4.58-1.53-10.72,1.8-16.74,3.35-14.24,2.07-26.98,10.55-39.81,17.41-7.71,4.73-14.01,4.15-21.78,6.57-6.92,2.65-14.35,7.21-21.39,9.54-16.99,5.88-35.26,15.22-49.57,24.67-10.23,6.51-21.05,11.58-31.2,18.49-13.25,8.04-21.26,19.01-31.33,29.62-14.66,13.15,4,23,9.66,35.46,3.72,7.15,7.78,14.37,12.25,21.1,5.65,9.1,13.48,16.16,19.94,24.84,11.64,15.09,21.76,31.37,31.74,47.35,10.51,16.09,15.94,24.33,35.23,14.07,14.05-6.72,28.7-12.7,42.97-18.31,13.61-5.78,21.54-11.46,31.78,3.44,3.13,4.2,7.02,8.88,9.83,13.18,2.62,3.99,5.08,7.96,8.32,8.21,6.36.03,11.46-4.96,17.63-6.98,23.23-10.41,45.99-23.43,68.83-34.27,4.79-2.03,9.41-4.64,11.8-9.38,5.02-13.23,11.42-26.45,16.6-39.95,3.73-9.23-.89-18.52-5.67-26.46ZM111,411.93c-9-10.83-16.36-22.76-23.98-34.31-16.03-26.12-37.59-48.91-51.3-76.14-2.17-3.9-3.73-6.65-1.1-9.86,5.93-5.57,14.19-14.7,22.66-13.67l.34.08c2.24.69,2.97,2.13,4.37,4.17,4.79,9.55,12.05,18.59,17.96,27.59,11.86,18.28,23.4,36.62,36.96,54.16,4.72,5.89,9.92,11.98,13.87,18.27,3.34,4.59,2.58,8.97-.4,13.24-3.31,5.04-8.18,12.65-11.03,16.62-2.33,3.46-5.4,3.17-8.35-.15ZM170.49,403.16c-4.39,1.58-6.58,2.38-8.01,2.98-4.18,1.75-5.99,2.81-11.21,4.99-3.16,1.32-3.13,1.2-4.79,1.88-.99.43-1.98.85-2.97,1.27-5.22,2.22-8.83,3.64-13.32,5.2-.75.26-1.49.52-2.24.77-.01,0-.02,0-.03.01-.66.21-2.24.45-2.82-.3-.04-.05-.07-.1-.1-.15,0,0-.01,0,0-.01-.7-1.4,1.64-5.01,7.33-12.27,6.66-8.49,9.98-12.73,12.07-14.53.52-.44,1.07-.88,1.67-1.32.01-.02.02-.02.03-.03,3.89-2.84,9.66-5.71,19.83-10.78,3.67-1.83,7.75-3.73,9.72-4.6.63-.27,1.92-.87,3.59-1.66.03-.02.07-.04.1-.05,4.43-2.07,11.41-5.41,15.74-7.49h.01c.08-.05.2-.1.34-.17.37-.17.9-.41,1.47-.55.22-.06.56-.09,1.22-.17.52-.06.95-.1,1.25-.12h.03c.47.05.89.2,1.2.46-.83,3.83-1.67,7.65-2.5,11.48-.1.44-.44,3.73-1.5,7.87-.55,2.15-.92,3.12-1.47,4.07-1.4,2.44-3.37,3.79-4.53,4.53-5.67,3.62-12.77,6.05-20.11,8.69ZM226.67,406.69c-.86,3.06-.96,6.55-2.53,9.17-1.67,2.39-6.7-4.75-9.04-7.68-3.17-3.84-7.21-8.45-11.07-11.4-1.33-1.13-2.47-2.3-2.44-4.15,1-6.75,2.68-20.16,4.56-25.59,1.28-.85,2.23.76,3.4,2,2.7,3.54,4.78,8.12,7.98,11.03l.36.38c3.63,4.25,9.33,10.64,10.53,15.6.34,2.8-1.13,7.25-1.75,10.64ZM243.4,413.8c-.11,2.31.26,2.48-.1,3.4-.56,1.44-1.86,2.12-4.52,3.39-2.62,1.26-4.98,2.33-7.01,3.23-2.88.45-2.39-2.15-1.52-4.5,1.04-2.81,1.23-4.13,1.77-6.06.35-1.25.63-2.53,1.19-5.08.48-2.18.65-3.12,1.19-5.58.65-2.92,1.05-4.39,1.6-5.2.72-1.06,2.18-1.91,5.1-3.6,4.2-2.43,5.61-2.55,6.43-2,.02.01-.87,6.23-2.25,12.53-.11.52-.58,2.06-1.03,4.15-.5,2.31-.77,3.57-.85,5.32ZM268.8,387.24c-.36,2.66-.55,6.47-.88,10.14-.17,1.9-.51,3.79-.71,5.69-.16,1.56-.24,2.57-.98,3.62-.62.87-1.41,1.38-2.4,2-1.13.72-2.61,1.39-2.96,1.54-.28.12-.31.15-3.61,1.55-.69.29-1.51.64-2.67.86-.92.17-1.47.25-1.78-.04-.57-.54.06-1.95.5-3.3.29-.9.49-2.67.9-6.2.75-6.51-.69-8,.82-12.44.25-.74.61-1.78,1.37-3.02,2.21-3.59,5.61-5.23,7.44-5.94.57-.56,1.78-1.2,3.28-2.01,1.17-.63,2.3-1,3.02-.46l.09.25c.07,1.9-1.38,5.43-1.42,7.76ZM282.42,397.8l-.3.42c-.79,1.05-2.06,1.79-3.19,2.45-3.23,1.87-8.37,5.11-7.52.12,2.45-6.11,3.97-11.9,3.25-18.79-.82-5.4,2.52-8.73,6.55-11.61,1.7-1.14,4.6-4.81,6.56-5.01.9.31.69,1.79.78,2.58-.46,4.69-1.2,9.85-2.35,15.39-1.1,5.29-2.41,10.13-3.78,14.45ZM287.8,331.8c-1.33-2.19-3.87-4.74-5.53-4.14-1.03.37-1.42,1.86-1.67,2.81-.54,2.04-.12,3.8,0,4.27.9,3.59,2.94,7.81,2.94,7.81,0,0,0,0,0,0,0,0,1.76,4.8,2.4,6.86,1.15,3.76,1.73,5.64,1.07,7.73-.92,2.91-3.57,4.44-5,5.27-1.47.85-4.38,2.46-7.2,1.8-3.14-.74-3.58-4.22-8.4-12.6-3.66-6.36-4.6-9.73-7.7-10.52-.46-.12-2.7-.63-3.61.47-1.6,1.93,1.84,7.65,6.71,15.65,2.6,4.25,3.7,5.62,4.01,8.4.09.82.63,5.64-2.56,9.01-3.27,3.47-9.63,4.82-13.03,2.1-2.45-1.96-5.28-5.31-10.18-13.24-1.55-2.51-3.9-4.44-5.58-6.87-.7-1.02-1.55-2.33-3.21-2.96-1.34-.51-3.44-.68-4.26.34-1.17,1.47.81,4.8,2.4,7.42.89,1.47,1.72,2.68,2.55,3.77,1.41,1.85,2.68,3.23,3.37,3.94.23.24.36.37.47.49,2.24,2.29,3,4.26,5.33,7.7,1.55,2.28,2.08,3.14,2.61,4.84.26.85.4,1.58.47,2.07-.19.83-.56,1.35-.79,1.64-.37.45-.78.74-1.32,1.11-.36.25-.67.43-.89.55-.04.02-.77.43-1.6.75-1.01.39-2.63.89-3.55.88-2.49-.05-4.44-2.01-5.43-3.06-7.59-7.98-12.93-22.14-21.44-25.7-4.19-1.75-8.23-.41-14.1,1.39-16.68,5.12-32.02,15.31-48.78,19.91-5.54.64-9.74-3.22-12.63-7.52-6.92-10.97-16.47-21.1-22.55-32.47-1.34-2.48-2.47-4.34-4.3-6.93-12.19-15.08-20.94-32.19-34.25-47.09-14.42-16.81,26.04,6.49,29.76,9.6,30.68,19.32,17.09-19.42,27.53-23.1,11.32.87,20.97,10.91,26.05,20.08,4.98,8.22,7.95,18.52,14.1,25.77,4.54,4.63,8.19.72,7.67-4.46-.07-7.09-6.81-13.64-6.35-20.47.22-.64.64-1.59,1.51-2.36,5.14-4.56,16.32,5.52,22.55,1.47,4.86-3.15,3.1-12.55,7.21-13.33,1.01-.19,1.93.07,3.05.91,4.22,3.16,7.39,13.14,13.82,14.87,5.34,1.21,6.22-5.87,4.04-9.52-4.3-7.03-16.93-31.82-26.73-23.92-5.82,4.4-2.3,16.11-9.87,18.46-4.27.97-9.07-1.16-13.24-2.33-7.75-2.3-15.05-4.05-23.05-7.19-9.22-1.68-26.86-20.28-32.83-7.02-1.88,4.94-.78,11.89-3.25,16.74-2.45,5.34-7.62,5.77-12.74,2.14-4.54-3.14-10.93-7.37-16.92-10.05-3.92-2.2-10.49-4.1-11.02-8.99.79-5.89,9.6-9.58,14.13-13.01,8.4-6.08,17.79-10.27,27.66-13.74,18.24-7.19,36.34-16.76,54.08-25.22,9.01-3.95,20.71-7.73,29.88-13.05,7.34-3.71,13.54-6.16,21.81-10,4.01-1.91,9.67-4.37,13.62-2.82l.42.17c5.17,2.71,7.39,10.01,10.38,15.03,13.01,26.14,34.21,50.93,51.77,74.06,4.05,6.58,4.81,13.82,8.65,20.39,5.46,8.72,13.33,14.78,18.17,24.57,3.12,6.3,6.32,8.5,5.57,11.88-1.18,5.3-8.64,9.36-12.34,7.64-1.69-.79-2.02-2.51-6.4-10.4-.82-1.48-1.23-2.16-1.78-2.99-1.22-1.85-1.82-2.32-3.02-5.01-.94-2.1-1.34-4.01-3.22-5.18-.05-.03-.1-.06-.17-.1-1.01-.56-2.4-.31-3.28.21-1.74,1.03-1.83,3.29-1.83,3.42-.02,1,.48,2.06,1.48,4.17.37.79.7,1.36.9,1.7,1.77,2.99,3.93,6.29,5.48,8.69,4.64,7.16,1.74,3.29,3.16,5.41.38.56,1.29,1.89,1.28,3.68,0,0,0,.45-.08.92-.61,3.39-4.12,5.41-5.33,6.13-2.11,1.26-5.2,2.91-7.6,1.73-2.09-1.02-1.33-3.08-4.67-10.07-1.38-2.9-1.88-3.3-2.8-5.8-1.1-2.99-.92-3.83-2-5.6ZM307.3,372.42c-.05.52-.07,1.11-.08,1.74-.03,1.05,0,2.23,0,3.44,0,1.08-.01,2.15-.07,3.18-.01.2-.02.39-.03.58-.03.38-.06.76-.11,1.12-.06.45-.13.88-.22,1.3-.09.41-.2.8-.32,1.16-.07.2-.14.39-.23.57-.02.05-.04.1-.07.14-.08.18-.18.35-.28.51l-.26.34c-.51.48-1.15.95-1.86,1.41-.05.04-.1.07-.15.09-1.47.93-3.25,1.8-4.92,2.65-.03.01-.06.02-.08.04-.97.48-1.89.96-2.7,1.43-.18.1-.36.19-.53.28-.2.1-.39.19-.58.28-.19.09-.38.17-.55.24-.18.07-.35.14-.51.2-.17.06-.32.11-.47.14-.1.03-.2.06-.29.07-.06.02-.11.02-.16.03-.21.03-.41.03-.58,0-.02,0-.04,0-.05-.01-.01,0-.02-.01-.03-.02-.21-.04-.39-.13-.53-.29-.12-.13-.21-.28-.28-.45,0-.01-.02-.03-.02-.05-.09-.21-.15-.44-.19-.7-.04-.25-.06-.52-.06-.79,0-.65.08-1.34.12-1.91.42-1.47,1.07-3.7,1.93-6.41,1.37-4.3,1.63-4.68,2.14-6.79.98-4.04.41-4.28,1.32-7.88,0,0,.89-3.52.94-5.48,0-.04.02-.25.04-.53.03-.35.1-.67.21-.96.08-.3.21-.57.36-.82.21-.37.47-.69.78-.97.64-.57,1.45-1,2.32-1.34.01-.01.02-.01.03-.01.67-.26,1.38-.48,2.09-.69.02,0,.04,0,.06,0h.02c.61-.07,1.43-.52,2.32-1.08.02-.02.05-.03.07-.04,1.33-.85,2.83-1.93,4.05-2.41.04-.01.07-.03.1-.04.99-.36,1.79-.29,2.16.68.71,6.33-4.78,11.86-4.85,18.05ZM328,356.9c-.09.25-.76,1.75-1.57,3.59-.28.63-.97,2.2-1.93,4.31-1.44,3.17-1.38,2.96-2.32,5.04-1.13,2.52-1.31,3.04-2.18,4.86-1.39,2.9-1.93,3.64-2.52,4.27-1.09,1.16-2.26,1.84-3.08,2.23-.51.36-1.19.74-1.6.5-.73-.43-.07-2.45.7-6.3.91-4.58.57-4.71,1.6-9.4.55-2.49.62-2.36,1.1-4.6,1.2-5.63.55-5.84,1.31-8.17,1.43-4.41,5.53-7.88,10.01-10.24,1.1-.58,1.99-.98,2.59-.47,2.18,2.49-.74,10.81-2.11,14.38Z"/><path class="cls-2" d="M226.67,406.69c-.86,3.06-.96,6.55-2.53,9.17-1.67,2.39-6.7-4.75-9.04-7.68-3.17-3.84-7.21-8.45-11.07-11.4-1.33-1.13-2.47-2.3-2.44-4.15,1-6.75,2.68-20.16,4.56-25.59,1.28-.85,2.23.76,3.4,2,2.7,3.54,4.78,8.12,7.98,11.03l.36.38c3.63,4.25,9.33,10.64,10.53,15.6.34,2.8-1.13,7.25-1.75,10.64Z"/><path class="cls-2" d="M130.38,395.46c-3.31,5.04-8.18,12.65-11.03,16.62-2.33,3.46-5.4,3.17-8.35-.15-9-10.83-16.36-22.76-23.98-34.31-16.03-26.12-37.59-48.91-51.3-76.14-2.17-3.9-3.73-6.65-1.1-9.86,5.93-5.57,14.19-14.7,22.66-13.67l.34.08c2.24.69,2.97,2.13,4.37,4.17,4.79,9.55,12.05,18.59,17.96,27.59,11.86,18.28,23.4,36.62,36.96,54.16,4.72,5.89,9.92,11.98,13.87,18.27,3.34,4.59,2.58,8.97-.4,13.24Z"/><path class="cls-1" d="M257,261.8c6.28.6,16.18,2.27,16.23,4.38.01.46-.32,1.68-4.67,2.71-9.52,2.26-27.44-.53-28.19,3.91-.45,2.69,1.52,5.84,1.06,8.61-.35,3.5-3.52,4.68-6.29,2.72-7.18-5.95-9.63-15.99-16.13-22.52-2.31-2.96-6.46-6.77-5.59-10.7.61-2.26,3.57-3.21,6.56-2.2,4.96.4,10.44,14.68,14.11,6.71,3.28-7.64,5.12-19.52,11.48-26.03,7.55-6.79,7.27,5.33,4.79,10.23-1,1.97-1.51,3.46-2.64,5.93-.79,1.72-1.36,2.78-1.96,3.98-3.16,6.29-4.73,9.45-4.37,10.26,1.01,2.32,5.96,1.08,15.6,2Z"/><path class="cls-1" d="M252.32,296.07s9.66,6.44,11.75,10.2c.35.63.87,1.9.42,3.13-.14.38-.65,1.48-3.22,2.41-2.01.72-2.75.22-7.2.73-1.63.19-2.28.34-2.87.52-.96.29-1.9.71-3.7,1.85-3.04,1.93-5.02,3.18-6.47,5.2-.21.3-.95,1.36-1.8,2.67-.53.82-.64,1.04-1.03,1.63-.81,1.21-1.53,2.17-2.03,2.81-1.17,1.07-2.17,1.45-3.04,1.3-4.71-.8-5.4-16.85-3.58-20.16.22-.94.65-2.33,1.57-3.77.41-.63,1.39-2.03,7.23-5.59,4.03-2.46,5.65-3.07,7.24-3.37,1.64-.31,3.04-.24,3.28-.22,1.43.08,2.61.38,3.45.66Z"/></svg>